<?xml version="1.0" standalone="no"?>
<!DOCTYPE svg PUBLIC "-//W3C//DTD SVG 20010904//EN"
 "http://www.w3.org/TR/2001/REC-SVG-20010904/DTD/svg10.dtd">
<svg version="1.0" xmlns="http://www.w3.org/2000/svg"
 width="1750.000000pt" height="1750.000000pt" viewBox="0 0 1750.000000 1750.000000"
 preserveAspectRatio="xMidYMid meet">
<metadata>
Created by potrace 1.11, written by Peter Selinger 2001-2013
</metadata>
<g transform="translate(0.000000,1750.000000) scale(0.100000,-0.100000)"
fill="#000000" stroke="none">
<path d="M4044 14647 c-2 -7 -3 -1572 -1 -3477 3 -3635 2 -3508 48 -3845 115
-846 462 -1691 968 -2360 200 -264 479 -563 721 -769 730 -624 1655 -1064
2746 -1306 104 -23 205 -42 224 -42 19 0 120 19 224 42 1504 333 2684 1040
3467 2075 500 660 844 1492 963 2326 53 369 51 217 51 3914 l0 3450 -4703 3
c-3826 2 -4704 0 -4708 -11z m4780 -1464 c38 -115 72 -212 76 -216 4 -5 111
-12 236 -15 l229 -7 -183 -134 c-100 -74 -182 -140 -182 -147 0 -7 29 -106 65
-220 35 -115 63 -210 61 -212 -2 -2 -82 52 -177 120 -96 68 -180 127 -187 132
-8 5 -78 -39 -198 -124 -102 -72 -187 -130 -189 -128 -2 2 25 96 61 208 35
113 64 212 64 220 -1 8 -82 76 -182 150 l-182 135 227 5 c131 3 230 9 235 15
5 6 40 103 78 218 38 114 71 207 74 207 3 0 36 -93 74 -207z m2881 -513 c18
-11 36 -27 39 -35 3 -8 18 -15 33 -15 43 0 93 -36 111 -79 13 -31 27 -43 64
-59 30 -13 54 -32 67 -53 20 -33 27 -91 15 -123 -8 -21 -42 -20 -79 2 l-30 19
-40 -45 c-44 -51 -87 -72 -142 -72 -38 0 -38 -1 -51 -52 -18 -76 -43 -98 -110
-98 -52 0 -54 -1 -47 -22 4 -13 10 -44 12 -70 4 -42 2 -51 -24 -77 -16 -16
-48 -35 -71 -42 -50 -15 -80 1 -105 53 -10 22 -27 38 -50 46 -18 6 -46 26 -63
43 -25 27 -29 38 -31 95 -1 36 -7 71 -13 79 -37 45 -30 130 15 179 16 17 25
39 25 59 0 58 70 137 120 137 9 0 22 15 28 35 17 44 63 83 110 90 20 3 48 10
62 14 47 17 121 12 155 -9z m-5585 -70 c0 -24 -83 -259 -119 -335 -92 -196
-222 -339 -381 -419 -50 -25 -98 -46 -106 -46 -19 0 -28 -21 -59 -149 -36
-147 -29 -152 78 -59 101 87 214 162 335 222 87 44 92 45 88 24 -3 -13 -12
-58 -21 -101 -57 -291 -212 -490 -477 -611 -115 -53 -130 -55 -73 -9 117 93
194 199 195 266 0 20 -5 27 -20 27 -15 0 -22 -10 -30 -42 -16 -61 -68 -128
-155 -199 -76 -63 -85 -76 -62 -85 9 -3 1 -18 -25 -45 -63 -66 -142 -243 -171
-384 -45 -213 -47 -285 -8 -285 14 0 22 12 30 48 49 195 227 378 570 587 12 7
13 -10 8 -111 -16 -335 -159 -554 -478 -733 -61 -34 -91 -78 -124 -181 -16
-49 -17 -67 -6 -192 17 -193 20 -208 42 -208 12 0 21 10 25 28 39 170 78 254
165 347 57 61 275 235 293 235 15 0 -1 -388 -19 -470 -47 -212 -152 -375 -350
-540 -85 -71 -96 -90 -110 -190 -6 -48 25 -224 43 -242 15 -15 27 -4 65 65 20
34 62 98 95 142 70 94 239 285 251 285 16 0 36 -204 36 -365 -1 -184 -14 -249
-76 -383 -48 -104 -109 -191 -205 -290 -101 -105 -109 -147 -54 -294 25 -69
36 -88 51 -88 12 0 23 11 30 27 40 105 130 256 257 427 l66 89 12 -29 c7 -16
24 -88 40 -159 37 -173 39 -377 6 -500 -38 -138 -118 -281 -234 -418 -27 -32
-33 -47 -36 -101 -4 -58 -1 -70 47 -170 39 -84 54 -107 68 -104 14 3 20 18 26
68 4 36 21 106 38 155 34 102 177 397 190 390 13 -9 85 -205 110 -300 55 -218
17 -450 -107 -642 -31 -47 -38 -67 -38 -108 0 -46 5 -59 56 -131 63 -89 82
-109 97 -100 5 4 10 55 10 114 0 81 6 130 24 202 23 88 87 262 135 368 l19 43
21 -33 c35 -57 102 -217 128 -307 57 -196 37 -394 -59 -586 -41 -83 -46 -105
-36 -161 8 -41 19 -59 77 -117 37 -37 74 -66 82 -65 12 3 14 20 12 93 -2 52 4
128 13 180 15 87 122 425 134 425 10 0 113 -168 157 -257 85 -169 101 -344 49
-538 -42 -153 -42 -152 -9 -186 l29 -31 -55 -48 -55 -49 -42 25 c-40 23 -44
23 -124 13 -124 -17 -365 -6 -464 21 -108 29 -245 97 -330 164 -64 51 -219
215 -211 224 2 1 39 -6 82 -17 84 -21 162 -35 417 -77 216 -34 340 -76 440
-146 29 -21 61 -18 55 6 -2 8 -94 86 -204 174 l-202 159 -123 6 c-340 15 -572
161 -764 481 -36 60 -64 111 -62 113 2 2 51 -15 109 -36 58 -22 190 -65 293
-96 103 -31 225 -73 272 -92 60 -25 87 -33 95 -25 14 14 7 24 -144 202 l-123
144 -110 28 c-271 69 -470 221 -589 448 -34 64 -97 228 -110 284 l-7 29 28
-18 c80 -53 214 -131 353 -205 85 -46 177 -98 205 -117 100 -67 101 -40 2 135
l-80 142 -112 54 c-316 153 -477 374 -529 727 -22 154 -23 169 -13 169 6 0 46
-21 91 -46 205 -118 389 -271 493 -411 30 -40 58 -73 63 -73 5 0 14 8 19 18 7
13 -14 64 -90 222 l-100 205 -83 43 c-270 142 -407 344 -446 662 -5 46 -10
104 -10 127 l0 43 73 -46 c162 -104 331 -256 406 -367 41 -61 63 -59 75 4 8
42 3 62 -51 225 -58 173 -63 184 -148 305 -113 162 -188 294 -223 391 -21 60
-31 78 -46 78 -16 0 -18 -6 -13 -41 7 -54 100 -241 179 -361 l64 -96 -44 36
c-105 86 -204 245 -237 382 -19 80 -30 272 -21 363 l8 67 51 -42 c147 -123
274 -264 339 -376 34 -59 61 -67 66 -18 5 42 -78 477 -97 506 -8 14 -14 30
-13 36 4 21 -67 397 -77 407 -8 8 -15 7 -23 -1 -10 -10 -8 -39 9 -139 12 -70
20 -129 18 -132 -7 -6 -60 116 -79 181 -9 32 -23 101 -31 154 -8 53 -17 99
-19 102 -3 2 -12 2 -21 -1 -19 -8 -19 -39 0 -147 19 -109 48 -198 90 -280 l34
-65 -35 40 c-53 61 -110 161 -141 250 -25 74 -27 92 -28 235 0 114 5 178 18
240 10 47 21 87 24 90 15 15 205 -221 269 -336 33 -58 55 -77 68 -56 2 4 10
98 17 208 l12 201 -32 47 c-156 226 -194 470 -111 716 27 84 92 226 110 244 5
5 27 -29 54 -83 93 -185 137 -322 159 -497 13 -108 27 -124 58 -69 27 46 119
446 119 516 0 51 3 59 19 59 13 0 24 14 36 48 30 81 104 217 141 261 34 39 40
71 14 71 -32 0 -122 -134 -177 -263 l-34 -82 6 64 c9 93 49 210 96 280 83 125
207 207 434 287 128 46 145 50 145 34z m2656 -457 c10 -16 66 -76 124 -134
193 -192 207 -273 74 -422 -19 -20 -34 -42 -34 -47 0 -6 -70 -10 -190 -10
-120 0 -190 4 -190 10 0 5 -15 27 -34 47 -65 73 -86 113 -86 162 0 76 39 140
160 260 58 58 114 118 124 134 10 15 22 27 26 27 4 0 16 -12 26 -27z m3502
-315 c20 -20 54 -41 74 -47 42 -14 83 -57 93 -98 4 -20 18 -34 48 -48 57 -27
93 -97 80 -152 -11 -47 -38 -54 -87 -23 l-34 20 -22 -27 c-37 -48 -89 -73
-150 -73 l-56 0 -11 -43 c-7 -23 -22 -56 -34 -71 -21 -27 -26 -28 -81 -23
l-59 5 8 -31 c21 -85 1 -136 -64 -163 -69 -30 -122 -6 -139 63 -4 15 -21 30
-50 43 -59 25 -91 90 -78 154 7 32 5 49 -8 76 -10 19 -18 45 -18 57 0 37 25
88 54 110 16 13 26 31 26 47 0 58 44 111 109 130 31 9 46 20 59 46 23 46 69
71 137 75 31 1 59 6 63 10 4 4 29 5 55 2 38 -3 56 -12 85 -39z m-3168 -373 c0
-23 -3 -25 -50 -25 -49 0 -50 -1 -50 -30 l0 -30 -65 0 -65 0 1 -32 c0 -18 21
-219 47 -447 37 -320 51 -416 62 -422 8 -4 58 -24 110 -43 123 -46 241 -116
305 -180 49 -48 52 -55 58 -115 4 -35 7 -101 7 -146 l0 -82 66 -12 c121 -22
227 -81 287 -159 27 -35 27 -38 27 -183 l0 -148 73 -35 c39 -19 102 -57 138
-84 80 -61 147 -136 126 -140 -8 -2 -332 137 -720 308 -387 170 -708 310 -712
310 -3 0 -324 -140 -711 -311 -388 -170 -714 -309 -725 -307 -50 8 128 161
259 224 l72 35 0 148 c0 145 0 148 28 183 59 78 165 137 286 159 l66 12 0 82
c0 45 3 111 7 146 6 60 9 67 58 115 64 64 182 134 305 180 52 19 102 39 110
43 11 6 25 102 62 422 26 228 47 429 47 447 l1 32 -65 0 -65 0 0 30 c0 29 -1
30 -50 30 -47 0 -50 2 -50 25 l0 25 360 0 360 0 0 -25z m3405 -570 c28 -13 58
-25 67 -25 31 0 87 -59 99 -103 6 -23 22 -54 35 -70 30 -36 46 -94 36 -132 -7
-23 -3 -37 15 -63 34 -51 38 -92 15 -145 -23 -51 -55 -75 -77 -57 -7 6 -21 27
-30 46 -10 21 -22 33 -30 30 -88 -33 -140 -31 -198 8 l-35 24 -24 -25 c-56
-61 -119 -69 -172 -22 l-35 30 -11 -42 c-24 -90 -70 -117 -157 -96 -57 14 -76
43 -69 101 3 29 -1 47 -15 67 -40 56 -37 137 6 183 14 15 25 38 25 51 0 63 51
129 112 146 22 6 52 25 71 46 28 29 42 36 83 40 27 3 60 0 73 -5 20 -7 32 -4
59 15 45 30 94 29 157 -2z m104 -939 c25 -13 64 -32 86 -42 47 -23 85 -75 85
-118 0 -20 7 -36 19 -43 10 -7 27 -32 36 -57 14 -37 16 -53 7 -87 -9 -36 -8
-45 14 -76 41 -61 25 -160 -33 -198 -30 -20 -43 -11 -67 44 l-18 38 -46 -13
c-25 -8 -57 -14 -71 -14 -25 0 -89 27 -123 52 -15 10 -22 8 -45 -14 -63 -58
-123 -65 -168 -18 -16 17 -32 30 -35 30 -4 0 -12 -17 -18 -39 -26 -85 -81
-115 -168 -91 -54 15 -67 36 -63 103 2 40 -2 60 -19 87 -37 59 -26 136 27 184
12 11 21 30 21 44 0 50 38 109 84 131 23 12 50 21 60 21 10 0 27 11 38 25 39
50 111 69 174 45 21 -8 33 -7 58 10 43 27 107 26 165 -4z m-1669 -911 l0 -65
-195 0 -195 0 0 -420 0 -420 -60 0 -60 0 0 419 c0 231 -3 422 -7 424 -5 3
-185 3 -400 0 l-393 -6 0 -419 0 -418 -60 0 -60 0 0 420 0 420 -765 0 -765 0
0 -420 0 -420 -60 0 -60 0 0 418 0 419 -392 6 c-216 3 -396 3 -400 0 -5 -2 -8
-193 -8 -424 l0 -419 -60 0 -60 0 0 420 0 420 -195 0 -195 0 0 58 c0 32 3 62
7 65 3 4 991 7 2195 7 l2188 0 0 -65z m1423 -104 c34 -17 41 -18 65 -5 41 21
102 17 141 -9 19 -12 54 -33 80 -47 57 -31 91 -80 91 -131 0 -24 9 -52 25 -75
27 -40 32 -90 14 -143 -9 -25 -8 -38 5 -65 32 -69 11 -152 -48 -192 -35 -22
-51 -13 -68 38 l-15 43 -61 -3 c-66 -4 -132 18 -166 56 l-18 21 -52 -30 c-73
-40 -100 -38 -148 12 -22 23 -40 40 -42 38 -1 -2 -8 -19 -16 -37 -30 -77 -110
-103 -190 -62 -46 23 -57 58 -37 116 12 35 11 43 -5 69 -34 57 -15 144 40 185
19 14 33 35 36 55 13 67 73 115 144 115 26 0 42 5 45 15 8 20 77 54 112 55 17
0 48 -9 68 -19z m-5133 -401 l0 -400 -60 0 -60 0 0 400 0 400 60 0 60 0 0
-400z m3150 0 l0 -400 -60 0 -60 0 0 400 0 400 60 0 60 0 0 -400z m-4940 -452
c0 -2 -20 -41 -44 -87 l-44 -84 -21 58 c-14 37 -20 68 -16 87 6 27 9 28 66 28
32 0 59 -1 59 -2z m2130 -36 c0 -36 -2 -40 -39 -50 -21 -7 -52 -12 -69 -12
-17 0 -32 -6 -34 -12 -3 -9 -28 -13 -79 -13 -66 0 -84 5 -159 40 -79 37 -91
40 -170 40 -73 -1 -97 -6 -165 -34 -45 -18 -107 -35 -141 -38 -53 -5 -68 -2
-135 28 -108 49 -158 47 -278 -10 -126 -60 -150 -59 -273 7 -61 33 -114 54
-148 59 -29 5 -55 14 -58 21 -3 9 177 12 872 12 l876 0 0 -38z m2290 -12 l0
-50 -1120 0 -1120 0 0 50 0 50 1120 0 1120 0 0 -50z m2119 21 l20 -28 -37 -16
c-20 -9 -55 -27 -77 -39 -68 -39 -145 -32 -290 26 -90 36 -137 50 -190 53 -70
5 -71 5 -180 -52 -138 -73 -160 -74 -282 -16 -124 60 -159 62 -269 17 -115
-47 -155 -47 -276 0 -131 51 -211 56 -299 19 -39 -17 -89 -30 -126 -32 l-63
-5 0 51 0 51 1024 0 1025 0 20 -29z m309 -70 c27 -19 37 -21 66 -12 51 14 104
-2 146 -43 19 -20 50 -48 68 -62 48 -38 65 -79 59 -133 -4 -30 -1 -55 8 -71
21 -37 18 -107 -4 -144 -17 -26 -18 -37 -9 -71 15 -55 3 -107 -31 -144 -30
-32 -77 -49 -92 -34 -5 5 -13 29 -17 54 l-8 44 -45 1 c-69 2 -115 21 -152 64
l-33 39 -60 -22 c-54 -18 -64 -19 -93 -7 -21 8 -39 27 -53 54 l-21 41 -21 -30
c-60 -84 -117 -98 -194 -48 -52 34 -57 49 -36 104 18 49 18 54 8 121 -8 58 22
117 73 145 22 12 41 33 53 60 25 56 69 83 137 83 36 0 63 7 85 21 43 27 121
22 166 -10z m-6324 -17 c183 -99 204 -101 346 -34 117 56 155 58 259 11 68
-30 81 -33 145 -28 49 3 100 16 163 41 126 49 167 48 292 -6 87 -38 104 -42
178 -43 l83 0 0 -32 0 -33 -74 0 c-57 0 -75 -3 -78 -15 -2 -11 -23 -5 -93 27
-124 57 -185 57 -343 -1 -62 -22 -129 -41 -148 -41 -20 0 -68 14 -107 32 -43
19 -95 33 -129 36 -51 4 -66 0 -158 -43 -128 -60 -159 -59 -275 8 -44 26 -102
51 -128 56 -26 5 -49 10 -51 12 -2 2 -7 24 -11 48 l-7 44 42 -6 c23 -3 66 -18
94 -33z m5539 10 c225 -83 231 -85 289 -81 l58 3 -53 -47 c-28 -27 -58 -48
-65 -49 -8 0 -65 20 -129 45 -193 76 -255 75 -388 -1 -115 -68 -147 -69 -272
-10 -127 59 -164 60 -287 10 -107 -44 -135 -42 -276 12 -116 45 -205 50 -282
16 l-48 -21 0 45 c0 44 1 46 48 67 74 35 175 30 277 -12 55 -23 102 -35 151
-38 64 -5 77 -2 145 28 103 46 140 45 259 -11 142 -66 172 -63 348 35 79 43
125 45 225 9z m-1495 -94 l3 -50 -1270 0 -1271 0 0 48 c0 27 2 51 4 53 2 2
573 3 1268 2 l1263 -2 3 -51z m-4002 -85 c138 -72 168 -73 305 -10 59 27 113
45 134 45 20 0 71 -15 113 -32 110 -47 174 -46 307 6 138 53 179 53 313 -5
100 -43 102 -44 102 -76 0 -30 -3 -33 -30 -33 -16 0 -55 12 -87 26 -32 14 -85
28 -118 31 -53 5 -77 0 -198 -41 -155 -53 -167 -53 -276 -3 -99 46 -151 43
-270 -13 -128 -61 -159 -61 -270 4 -53 30 -106 53 -143 59 -54 11 -58 14 -58
38 0 77 36 77 176 4z m4369 7 c75 -30 102 -36 165 -36 64 0 85 5 142 32 92 43
127 42 235 -10 78 -38 96 -43 159 -43 66 0 75 3 155 49 103 61 170 71 259 38
30 -11 96 -35 145 -54 l90 -33 -3 -42 c-2 -24 -8 -43 -13 -43 -5 0 -60 20
-122 44 -184 73 -238 72 -382 -12 -105 -61 -144 -62 -266 -4 -113 55 -149 60
-224 32 -33 -13 -86 -32 -118 -43 l-58 -20 -139 46 c-77 26 -153 47 -169 47
-28 0 -29 2 -33 51 l-3 51 45 -7 c25 -4 86 -23 135 -43z m-225 -62 l0 -50
-1410 0 -1410 0 0 50 0 50 1410 0 1410 0 0 -50z m-4133 -96 c102 -53 111 -56
161 -51 34 4 88 22 145 49 110 52 144 53 242 8 100 -47 148 -45 304 9 129 45
176 49 244 22 24 -9 27 -16 27 -56 l0 -45 -27 11 c-58 23 -142 13 -263 -31
-138 -50 -178 -50 -289 -1 -97 43 -143 40 -264 -17 -122 -58 -149 -57 -282 13
-91 47 -113 55 -160 55 -60 0 -61 2 -44 64 l11 38 44 -6 c24 -3 91 -31 151
-62z m5557 11 c63 -25 121 -45 130 -45 13 0 15 -9 9 -47 -3 -27 -6 -49 -7 -50
-1 -1 -53 19 -116 44 -127 50 -212 64 -274 43 -20 -6 -72 -32 -114 -56 -104
-59 -139 -59 -271 1 -121 56 -152 57 -265 10 -84 -35 -148 -44 -184 -26 -9 4
-44 17 -77 28 l-60 19 -3 48 c-3 44 -1 48 15 41 10 -4 52 -19 93 -32 90 -29
133 -26 230 19 94 43 128 42 241 -12 79 -38 104 -45 154 -45 53 0 71 6 149 49
49 27 100 52 115 57 45 14 117 0 235 -46z m-1326 38 c-10 -2 -26 -2 -35 0 -10
3 -2 5 17 5 19 0 27 -2 18 -5z m42 -103 l0 -50 -1550 0 -1550 0 0 50 0 50
1550 0 1550 0 0 -50z m-4460 -34 c0 -1 -26 -50 -57 -107 -71 -131 -124 -252
-159 -365 l-28 -88 -23 49 c-14 32 -23 69 -23 102 0 47 4 56 46 105 58 68 124
167 160 240 15 32 35 59 43 61 22 6 41 8 41 3z m194 -63 c51 -31 72 -38 128
-41 63 -4 74 -1 166 42 54 25 113 46 131 46 18 0 65 -14 104 -32 111 -49 166
-49 305 1 92 33 125 41 175 39 57 -1 58 -2 15 -5 l-48 -4 0 -95 0 -94 1740 0
1740 0 0 59 0 59 68 4 c47 3 88 14 139 36 39 18 86 32 105 32 18 0 75 -20 128
-45 122 -58 185 -61 270 -15 137 75 159 83 219 77 32 -3 105 -25 171 -51 93
-36 114 -48 112 -63 -8 -38 -201 -224 -347 -334 -104 -79 -99 -81 -110 58 -4
50 -10 95 -14 100 -3 5 -57 44 -118 86 l-113 77 -48 -24 c-173 -88 -477 -201
-715 -266 l-117 -32 0 -179 0 -178 -37 -10 c-124 -33 -441 -88 -665 -115 l-48
-6 0 68 c0 37 -4 72 -8 78 -4 5 -60 50 -126 98 l-119 88 -386 2 c-212 2 -434
8 -493 15 l-107 11 -136 -87 -135 -88 0 -74 0 -74 -52 7 c-144 18 -661 138
-700 162 -5 3 -8 85 -8 183 l0 178 -97 32 c-147 50 -302 115 -452 189 l-135
66 -113 -39 c-62 -21 -113 -40 -113 -41 0 -20 -32 -300 -35 -302 -2 -2 -30 17
-63 42 -51 40 -60 53 -70 97 -11 46 -68 204 -106 292 l-16 37 36 -15 c20 -8
64 -32 98 -52z m4406 -51 l0 -52 -1692 2 -1693 3 -3 39 c-2 21 -1 43 1 50 3 8
435 11 1696 11 l1691 0 0 -53z m-3873 -95 c125 -61 214 -98 432 -179 22 -8 19
-11 -45 -53 -38 -25 -76 -45 -86 -45 -19 0 -210 81 -318 135 -127 63 -282 157
-273 165 10 9 114 49 130 49 6 1 78 -32 160 -72z m4513 -29 c44 -29 80 -56 80
-59 0 -18 -419 -175 -637 -239 l-112 -33 -96 44 c-52 24 -95 46 -95 49 0 3 59
22 131 43 174 50 378 127 514 192 61 29 116 54 123 54 7 1 48 -23 92 -51z
m-4030 -350 l0 -153 -68 -45 c-37 -25 -70 -46 -74 -48 -5 -2 -8 66 -8 151 l0
155 73 46 c39 25 73 46 75 46 1 0 2 -69 2 -152z m4944 98 c18 -7 42 -26 54
-40 16 -21 26 -25 45 -21 42 11 103 -12 134 -50 15 -20 42 -52 59 -73 17 -20
36 -47 43 -59 14 -27 14 -85 0 -116 -7 -16 -8 -35 -1 -60 13 -48 0 -102 -33
-137 -20 -21 -25 -33 -19 -54 17 -68 -35 -157 -104 -176 -47 -13 -56 -3 -55
59 l1 48 -55 13 c-62 13 -119 57 -139 107 -13 30 -16 31 -46 22 -18 -5 -52 -9
-75 -9 -52 0 -77 21 -94 80 l-12 41 -37 -36 c-66 -65 -128 -63 -194 4 -36 37
-38 41 -27 73 6 19 21 45 32 57 15 16 19 29 14 51 -15 69 35 151 103 170 25 6
43 20 54 40 33 58 108 85 172 60 18 -7 35 -5 58 5 42 18 80 19 122 1z m-1621
-116 c5 -4 5 -77 0 -162 l-8 -155 -97 54 -98 55 0 153 0 154 98 -46 c53 -25
101 -48 105 -53z m-1928 -41 c117 -6 307 -9 430 -6 l219 6 90 -67 90 -67 -45
-9 c-24 -5 -231 -9 -459 -10 -332 -1 -450 3 -592 17 -255 26 -246 20 -136 94
89 60 95 62 143 58 28 -2 145 -10 260 -16z m-1212 -169 c145 -41 408 -98 550
-121 l77 -12 0 -79 0 -79 -37 6 c-127 21 -373 70 -458 91 -140 34 -426 126
-423 136 4 9 129 98 140 98 4 0 72 -18 151 -40z m3004 -87 c46 -26 80 -50 76
-54 -13 -13 -370 -97 -523 -124 -163 -28 -359 -55 -402 -55 l-28 0 0 75 c0 86
-14 77 145 95 125 14 357 53 495 84 58 13 116 24 129 25 13 1 62 -20 108 -46z
m1155 -348 c26 -17 50 -25 81 -25 58 0 106 -32 132 -87 13 -30 26 -43 40 -43
52 0 124 -82 125 -143 0 -10 7 -29 16 -42 23 -35 21 -118 -2 -151 -31 -44 -33
-48 -38 -84 -9 -51 -41 -98 -81 -117 -25 -12 -35 -23 -35 -40 0 -77 -97 -148
-175 -129 -30 8 -34 41 -9 87 8 17 14 32 12 33 -2 1 -23 14 -48 28 -52 30 -90
89 -90 141 l0 35 -62 11 c-84 15 -113 43 -113 111 0 28 0 50 0 50 -1 0 -18 -9
-40 -20 -81 -41 -144 -19 -185 64 -20 42 -20 47 -6 74 9 17 31 40 51 52 23 14
35 29 35 44 0 60 80 126 152 126 23 0 51 9 74 25 26 18 50 25 83 25 33 0 57
-7 83 -25z m-2296 -310 c569 -69 1118 -306 1596 -689 118 -95 330 -295 326
-306 -2 -5 -97 -84 -213 -176 -115 -92 -228 -182 -250 -200 l-40 -32 -110 89
c-257 209 -612 416 -880 515 -256 94 -499 137 -775 137 -276 0 -519 -43 -775
-137 -268 -99 -623 -306 -880 -515 l-110 -89 -40 32 c-22 18 -134 108 -250
200 -115 92 -211 171 -213 176 -4 11 208 211 326 306 536 429 1132 664 1802
708 96 6 360 -4 486 -19z m-2343 -1291 c229 -184 232 -186 272 -181 22 3 65 9
95 13 l55 6 -51 -53 c-109 -115 -206 -262 -280 -427 -23 -51 -44 -96 -47 -98
-9 -10 -68 118 -83 182 -12 52 -15 103 -12 211 l4 142 -63 7 c-112 12 -265
-16 -365 -67 -21 -11 -40 -19 -43 -19 -17 0 161 324 216 393 34 42 63 77 66
77 2 0 108 -84 236 -186z m4296 109 c55 -69 233 -393 216 -393 -3 0 -22 8 -43
19 -100 51 -253 79 -365 67 l-63 -7 4 -142 c3 -108 0 -159 -12 -211 -15 -64
-74 -192 -83 -182 -3 2 -24 47 -47 98 -74 165 -171 312 -280 427 l-51 53 55
-6 c30 -4 73 -10 95 -13 40 -5 43 -3 270 180 127 102 233 186 236 186 4 1 34
-34 68 -76z m-3527 -22 c214 -135 460 -263 878 -458 649 -303 912 -476 1134
-748 l57 -70 -43 -7 c-24 -3 -95 -7 -159 -7 l-116 -1 -39 66 c-70 120 -197
232 -399 352 -55 32 -233 128 -395 212 -328 170 -555 293 -705 383 -143 85
-405 258 -405 267 0 6 88 69 96 70 1 0 44 -27 96 -59z m-359 -165 c16 -12 16
-14 1 -20 -8 -3 -30 -6 -47 -6 l-32 0 25 20 c30 23 30 23 53 6z m3227 -6 l25
-20 -32 0 c-17 0 -39 3 -47 6 -15 6 -15 8 1 20 23 17 23 17 53 -6z"/>
<path d="M11580 12500 c0 -18 7 -20 59 -20 49 0 65 -4 90 -26 30 -25 51 -25
51 1 0 7 -14 25 -31 39 -26 23 -40 26 -100 26 -62 0 -69 -2 -69 -20z"/>
<path d="M11401 12384 c-17 -14 -31 -32 -31 -39 0 -26 20 -26 50 -2 16 14 35
27 41 29 17 6 4 38 -15 38 -8 0 -28 -12 -45 -26z"/>
<path d="M11305 12210 c-19 -36 -19 -90 -1 -134 30 -72 69 -55 41 18 -17 43
-17 49 -2 88 9 22 14 45 11 49 -11 18 -34 8 -49 -21z"/>
<path d="M5596 12064 c-19 -25 -54 -83 -78 -129 -52 -102 -47 -117 30 -96 71
19 126 77 101 107 -10 12 -17 9 -44 -21 -30 -32 -55 -45 -55 -28 0 14 79 139
99 157 27 24 28 56 1 56 -11 0 -34 -19 -54 -46z"/>
<path d="M4973 11603 c-13 -47 -7 -274 10 -353 28 -140 46 -190 68 -190 25 0
24 8 -8 137 -25 95 -28 127 -28 271 0 147 -2 162 -17 162 -11 0 -21 -11 -25
-27z"/>
<path d="M5074 11502 c-31 -20 -24 -231 10 -347 21 -68 39 -93 58 -77 13 10
11 22 -11 84 -22 64 -26 90 -26 207 -1 129 -6 150 -31 133z"/>
<path d="M5434 10792 c-5 -4 -35 -36 -65 -72 -106 -127 -169 -255 -190 -391
-9 -61 -9 -74 4 -87 14 -13 20 -12 59 11 77 45 178 177 178 232 0 33 -36 14
-59 -31 -12 -26 -34 -62 -48 -81 -27 -36 -81 -78 -89 -71 -10 10 20 116 51
185 39 84 79 146 148 226 42 50 48 61 36 72 -8 8 -19 11 -25 7z"/>
<path d="M5001 10291 c-11 -7 -11 -28 -1 -117 6 -60 15 -113 20 -118 16 -16
42 3 37 27 -3 12 -9 61 -12 109 -7 87 -19 114 -44 99z"/>
<path d="M5396 9899 c-41 -32 -112 -139 -155 -231 -50 -107 -103 -258 -97
-275 11 -28 35 -11 52 35 88 242 133 332 212 414 50 53 59 78 28 78 -7 0 -25
-9 -40 -21z"/>
<path d="M5379 9698 c-45 -61 -86 -156 -114 -261 -51 -196 -34 -212 82 -76 43
50 78 99 78 108 0 33 -32 19 -75 -34 -25 -30 -46 -51 -48 -46 -5 16 57 190 83
235 14 24 34 51 45 61 26 24 26 55 0 55 -12 0 -33 -17 -51 -42z"/>
<path d="M4950 9305 c-10 -12 -7 -21 23 -54 37 -42 68 -113 87 -203 9 -48 15
-58 32 -58 19 0 20 4 15 48 -9 72 -33 141 -69 201 -41 67 -69 88 -88 66z"/>
<path d="M5335 8758 c-32 -71 -47 -194 -43 -363 4 -169 11 -177 82 -88 69 86
126 207 133 280 7 78 -1 113 -27 113 -18 0 -20 -7 -20 -70 0 -83 -23 -149 -80
-235 l-40 -60 0 125 c0 146 11 226 40 284 25 53 25 66 -1 66 -15 0 -26 -14
-44 -52z"/>
<path d="M4720 8697 c0 -94 55 -232 133 -332 71 -90 152 -175 169 -175 33 0
19 31 -47 103 -128 137 -193 261 -210 395 -6 42 -10 52 -26 52 -16 0 -19 -7
-19 -43z"/>
<path d="M5216 8555 c-3 -9 -6 -103 -6 -210 0 -161 3 -195 15 -205 31 -26 35
3 33 216 -3 183 -5 209 -19 212 -9 2 -19 -4 -23 -13z"/>
<path d="M4991 8397 c-13 -17 -6 -24 36 -42 41 -17 60 -48 75 -121 11 -58 23
-78 41 -67 16 10 0 120 -23 161 -12 22 -39 49 -60 61 -44 25 -54 26 -69 8z"/>
<path d="M5555 7942 c-64 -96 -112 -298 -115 -477 -2 -121 -3 -117 22 -113 33
5 124 131 157 218 38 97 58 197 43 212 -14 14 -42 -7 -42 -31 0 -61 -72 -244
-119 -301 -25 -30 -25 -28 -11 110 14 129 35 209 81 309 21 46 39 90 39 97 0
27 -30 14 -55 -24z"/>
<path d="M4834 7785 c-16 -40 153 -258 276 -358 140 -113 250 -170 250 -129 0
19 -188 307 -201 307 -29 0 -18 -35 40 -129 33 -53 58 -96 55 -96 -14 0 -103
69 -167 129 -71 67 -165 185 -202 254 -20 39 -42 48 -51 22z"/>
<path d="M5856 7162 c-3 -5 0 -42 6 -83 19 -139 -3 -295 -52 -359 l-19 -25
-18 40 c-14 33 -17 62 -15 160 1 66 3 134 5 150 2 24 -2 30 -18 30 -26 0 -34
-45 -36 -191 -2 -100 1 -117 24 -167 46 -101 82 -96 137 17 39 81 53 195 40
323 -6 52 -13 99 -16 104 -7 11 -31 12 -38 1z"/>
<path d="M5020 6996 c-27 -33 141 -232 268 -317 77 -51 206 -99 268 -99 30 0
35 3 32 19 -4 28 -249 291 -270 291 -37 0 -14 -38 82 -140 68 -71 94 -106 84
-108 -27 -6 -176 72 -240 126 -34 28 -94 94 -134 146 -39 53 -73 96 -74 96 -2
0 -9 -6 -16 -14z"/>
<path d="M6192 6687 c-7 -8 -8 -25 -2 -52 5 -22 12 -87 16 -145 7 -121 -5
-221 -41 -324 -13 -38 -22 -73 -19 -78 12 -19 36 -5 51 30 49 117 68 267 53
416 -15 150 -29 188 -58 153z"/>
<path d="M5667 6173 c-18 -18 1 -34 87 -76 96 -46 230 -131 255 -161 13 -15 9
-16 -45 -10 -134 14 -273 65 -377 140 -48 35 -77 39 -77 10 0 -22 143 -112
230 -146 97 -37 185 -52 285 -48 65 2 80 6 83 20 5 24 -192 167 -313 227 -103
52 -116 56 -128 44z"/>
<path d="M6620 6023 c0 -10 7 -58 15 -108 24 -144 18 -272 -17 -358 -8 -20
-14 -25 -23 -17 -29 24 -56 114 -68 228 -10 91 -16 117 -27 117 -12 0 -15 -19
-14 -110 2 -131 25 -205 84 -269 44 -47 56 -43 88 32 44 102 51 242 21 410
-15 84 -18 92 -40 92 -11 0 -19 -7 -19 -17z"/>
<path d="M6139 5534 c-12 -15 -11 -18 5 -28 72 -43 141 -95 155 -115 l15 -24
-83 7 c-107 10 -194 36 -300 92 -66 35 -87 42 -98 33 -21 -18 6 -42 103 -89
118 -57 220 -82 330 -78 l89 3 3 29 c3 23 -6 37 -50 80 -29 28 -76 63 -104 78
-47 26 -53 27 -65 12z"/>
<path d="M8616 11868 c-35 -60 -41 -106 -21 -154 32 -77 112 -129 186 -122 52
5 43 29 -16 43 -63 14 -88 28 -114 61 -29 37 -27 96 5 151 14 24 22 48 19 53
-13 21 -35 8 -59 -32z"/>
<path d="M12130 11681 c0 -15 10 -19 57 -25 43 -5 65 -14 85 -33 20 -20 31
-24 39 -16 35 35 -47 92 -133 93 -40 0 -48 -3 -48 -19z"/>
<path d="M11937 11580 c-26 -21 -37 -60 -17 -60 16 0 85 51 85 63 0 21 -40 19
-68 -3z"/>
<path d="M11834 11419 c-27 -30 -27 -138 0 -168 14 -15 22 -18 32 -10 10 8 10
17 -2 44 -18 43 -18 63 1 99 28 54 8 78 -31 35z"/>
<path d="M12232 10709 c-24 -9 -28 -45 -4 -43 6 1 30 2 52 3 32 1 40 5 40 20
0 28 -44 38 -88 20z"/>
<path d="M12473 10703 c-4 -11 0 -21 12 -27 44 -26 84 -69 87 -94 4 -37 42
-38 46 -1 4 30 -26 70 -81 110 -46 34 -55 35 -64 12z"/>
<path d="M12094 10630 c-52 -20 -111 -133 -85 -164 19 -23 41 -8 41 29 0 37
31 82 66 95 13 5 24 14 24 19 0 17 -25 29 -46 21z"/>
<path d="M12318 9769 c-10 -5 -18 -17 -18 -24 0 -11 14 -15 55 -15 47 0 55 3
55 19 0 30 -55 42 -92 20z"/>
<path d="M12570 9752 c0 -10 20 -32 45 -50 28 -20 47 -41 51 -59 10 -48 14
-55 27 -51 6 3 13 22 15 42 3 35 -2 43 -47 87 -53 51 -91 64 -91 31z"/>
<path d="M12141 9674 c-41 -34 -61 -74 -61 -119 0 -28 4 -35 20 -35 13 0 20 7
20 20 0 40 29 90 65 111 20 12 34 27 32 33 -7 21 -45 17 -76 -10z"/>
<path d="M12264 8759 c-11 -18 12 -31 60 -35 50 -4 70 11 41 33 -22 16 -91 17
-101 2z"/>
<path d="M12530 8719 c0 -7 18 -31 40 -55 31 -33 40 -52 40 -78 0 -39 14 -53
35 -36 18 15 19 53 4 83 -31 60 -119 123 -119 86z"/>
<path d="M12105 8701 c-50 -30 -85 -78 -85 -118 0 -27 4 -34 17 -31 9 2 21 17
26 33 12 37 43 72 71 81 36 11 48 25 35 40 -15 19 -28 18 -64 -5z"/>
<path d="M12162 7828 c-15 -15 3 -38 32 -38 11 0 28 -4 36 -10 15 -9 40 4 40
21 0 12 -55 39 -78 39 -10 0 -23 -5 -30 -12z"/>
<path d="M11975 7794 c-44 -23 -66 -45 -82 -82 -24 -57 15 -76 42 -19 17 36
46 57 90 67 21 4 30 12 30 25 0 26 -40 31 -80 9z"/>
<path d="M12414 7746 c-3 -9 8 -32 27 -56 25 -31 33 -51 33 -82 1 -43 21 -63
37 -37 19 31 9 86 -24 135 -35 51 -63 66 -73 40z"/>
<path d="M11656 6887 c-47 -26 -81 -69 -73 -91 9 -23 34 -20 42 5 9 29 63 59
106 59 39 0 56 19 36 39 -18 18 -69 12 -111 -12z"/>
<path d="M11875 6900 c-9 -14 13 -40 33 -40 8 0 23 -7 33 -16 19 -17 39 -12
39 11 0 34 -88 72 -105 45z"/>
<path d="M12114 6776 c-3 -7 5 -32 17 -55 23 -45 27 -71 15 -113 -7 -24 -5
-28 13 -28 41 0 54 70 26 137 -26 62 -59 90 -71 59z"/>
<path d="M11143 6175 c-39 -17 -58 -48 -39 -64 10 -8 19 -6 37 8 34 26 85 35
120 20 24 -9 33 -9 42 0 9 10 7 17 -12 32 -28 23 -100 25 -148 4z"/>
<path d="M11404 6115 c-7 -17 56 -84 74 -78 19 7 14 29 -14 62 -28 33 -51 40
-60 16z"/>
<path d="M11586 5933 c-3 -4 -4 -33 0 -66 6 -50 4 -62 -15 -87 -24 -33 -26
-46 -8 -52 37 -14 67 38 67 117 0 72 -20 112 -44 88z"/>
<path d="M8640 5685 l0 -185 40 0 40 0 1 78 c0 42 2 73 4 67 2 -5 13 -43 25
-83 l21 -73 42 3 42 3 3 188 2 187 -39 0 -40 0 -3 -77 -3 -78 -24 78 -24 77
-44 0 -43 0 0 -185z"/>
<path d="M8440 5853 l-25 -4 13 -181 c7 -100 14 -184 16 -186 3 -2 41 0 86 4
l81 7 -3 36 c-3 34 -5 36 -38 36 -33 0 -35 2 -38 36 -3 33 -1 37 27 42 22 5
31 12 31 26 0 37 -12 51 -41 51 -25 0 -29 4 -29 29 0 25 5 31 30 36 26 6 30
11 30 41 l0 34 -57 -1 c-32 -1 -69 -4 -83 -6z"/>
<path d="M9031 5762 c-6 -48 -14 -113 -17 -146 -5 -44 -11 -60 -25 -63 -16 -5
-37 -58 -27 -69 12 -12 109 -7 122 6 10 10 22 73 36 179 11 90 20 165 18 166
-2 1 -24 5 -49 8 l-46 6 -12 -87z"/>
<path d="M8238 5822 c-84 -15 -88 -17 -88 -41 0 -39 13 -53 42 -46 24 6 24 6
49 -137 l25 -143 43 2 c24 1 46 5 49 8 3 3 -4 61 -16 129 -27 154 -28 166 -3
166 26 0 32 12 25 49 -7 35 -4 35 -126 13z"/>
<path d="M9226 5788 c-20 -18 -32 -47 -51 -125 -30 -124 -31 -162 -4 -196 44
-57 154 -56 183 1 18 37 56 201 56 246 0 80 -122 129 -184 74z m94 -57 c0 -24
-52 -227 -60 -235 -22 -22 -20 9 6 123 18 79 32 121 41 121 7 0 13 -4 13 -9z"/>
<path d="M8005 5771 c-47 -14 -60 -22 -59 -37 5 -56 48 -340 53 -346 3 -4 25
-2 49 5 41 11 43 13 40 47 -2 27 1 36 15 38 9 2 17 -3 17 -10 0 -8 6 -22 13
-31 10 -14 18 -14 55 -4 23 6 42 14 42 18 0 14 -153 339 -159 338 -3 0 -33 -9
-66 -18z m81 -213 c3 -12 0 -18 -9 -18 -9 0 -17 14 -21 38 -17 95 -16 97 4 47
11 -27 23 -58 26 -67z"/>
<path d="M9446 5584 c-31 -91 -56 -170 -56 -175 0 -10 42 -29 65 -29 8 0 24
33 41 85 16 46 30 83 31 81 2 -2 -3 -43 -12 -91 -14 -73 -14 -89 -3 -96 33
-21 48 -8 92 79 25 48 45 84 45 80 1 -4 -12 -43 -29 -88 -16 -45 -30 -85 -30
-90 0 -13 71 -34 79 -24 5 5 31 77 59 159 28 83 53 157 57 166 5 13 -6 21 -55
37 l-60 21 -36 -67 c-30 -57 -34 -62 -29 -32 3 19 8 53 11 75 l6 41 -54 17
c-30 9 -57 17 -60 17 -3 0 -31 -75 -62 -166z"/>
<path d="M7755 5688 c-33 -11 -62 -22 -64 -24 -3 -3 83 -267 106 -321 l13 -32
45 16 c50 17 50 12 15 106 l-18 47 39 20 c50 26 56 52 30 126 -32 91 -56 100
-166 62z m84 -79 c14 -40 14 -59 1 -59 -10 0 -19 17 -34 68 -12 36 20 27 33
-9z"/>
<path d="M7573 5614 c-18 -8 -33 -20 -32 -27 0 -6 26 -70 58 -142 33 -71 56
-134 54 -138 -10 -16 -29 17 -82 138 -29 66 -56 124 -60 128 -7 7 -91 -19 -91
-28 0 -3 94 -211 120 -266 22 -47 85 -62 140 -34 35 18 70 61 70 86 0 28 -122
299 -134 298 -6 0 -26 -7 -43 -15z"/>
<path d="M9831 5587 c-10 -23 -44 -100 -76 -170 -31 -71 -55 -130 -53 -131 25
-17 155 -66 177 -66 32 0 58 33 81 103 10 33 10 41 -6 58 -16 18 -16 19 5 19
27 0 61 54 61 98 0 42 -29 70 -110 105 l-61 26 -18 -42z m95 -102 c-6 -24 -31
-44 -42 -32 -3 2 3 21 12 41 20 40 41 34 30 -9z m-51 -95 c7 -12 -32 -90 -45
-90 -14 0 -13 7 6 57 17 43 27 52 39 33z"/>
<path d="M7253 5446 c-39 -19 -73 -38 -76 -43 -5 -7 151 -303 170 -323 5 -6
96 44 141 77 21 16 32 32 32 49 0 50 -58 134 -92 134 -15 0 -17 4 -9 18 18 33
-43 122 -83 122 -6 0 -44 -15 -83 -34z m73 -71 c9 -14 13 -32 10 -42 -6 -14
-10 -11 -26 15 -11 18 -20 37 -20 42 0 18 19 10 36 -15z m84 -146 c9 -21 10
-33 2 -41 -12 -12 -57 66 -46 83 8 14 29 -5 44 -42z"/>
<path d="M10027 5336 c-59 -79 -107 -146 -107 -149 0 -4 19 -16 41 -28 l42
-21 21 26 c14 18 25 23 34 17 12 -7 11 -13 -1 -37 -15 -29 -15 -30 25 -53 22
-12 44 -19 48 -14 7 7 130 327 130 338 0 5 -106 65 -116 65 -5 0 -58 -65 -117
-144z m100 -38 c-21 -48 -47 -75 -47 -48 0 11 59 100 67 100 1 0 -8 -23 -20
-52z"/>
<path d="M10296 5293 c-23 -38 -68 -107 -99 -155 l-56 -87 28 -21 c16 -11 33
-20 38 -20 4 0 23 25 42 56 18 30 35 53 37 51 2 -2 -5 -33 -16 -68 l-20 -64
28 -22 c15 -13 32 -23 38 -23 10 0 187 261 200 295 3 7 -10 22 -28 33 l-33 21
-43 -67 c-24 -37 -41 -58 -38 -47 3 11 12 47 22 79 l17 60 -29 23 c-16 13 -32
23 -37 23 -4 0 -27 -30 -51 -67z"/>
<path d="M7025 5304 c-27 -19 -51 -38 -53 -43 -2 -5 33 -82 78 -170 l81 -162
30 18 c47 28 54 40 39 69 -10 18 -11 27 -2 36 8 8 17 4 34 -16 l23 -27 38 26
c21 15 37 30 35 35 -5 12 -241 270 -247 269 -3 0 -28 -16 -56 -35z m109 -143
c26 -30 34 -47 27 -54 -6 -6 -12 -9 -14 -6 -11 14 -57 99 -57 105 0 9 -2 10
44 -45z"/>
<path d="M6851 5183 l-30 -28 24 -60 25 -60 -35 40 c-19 22 -35 43 -35 48 0
15 -26 5 -57 -22 l-33 -27 111 -142 c61 -78 115 -142 120 -142 14 0 69 42 69
53 0 5 -16 29 -36 53 -44 53 -36 56 22 9 23 -19 46 -35 51 -35 12 0 79 57 73
62 -3 3 -42 31 -87 63 -81 57 -82 58 -109 136 -15 44 -31 79 -36 79 -4 0 -21
-12 -37 -27z"/>
<path d="M10543 5146 c-31 -26 -132 -155 -152 -194 -25 -47 19 -122 70 -122
11 0 19 -6 19 -12 0 -7 11 -21 25 -30 l24 -18 60 78 61 77 -42 37 c-40 35 -43
36 -60 21 -11 -9 -16 -23 -13 -31 3 -9 -6 -28 -22 -44 -29 -30 -43 -35 -43
-15 0 18 138 191 156 195 20 5 17 -11 -8 -43 l-22 -28 34 -29 c19 -15 38 -28
42 -28 16 0 48 65 48 96 0 54 -65 114 -124 114 -13 0 -37 -11 -53 -24z"/>
</g>
</svg>
